<svg width="24" height="24" viewBox="0 0 24 24" fill="none" xmlns="http://www.w3.org/2000/svg">
<g id="SVG" clip-path="url(#clip0_1_187)">
<path id="Vector" d="M23.8187 12.2244C23.8187 11.2416 23.739 10.5244 23.5664 9.78062H12.3434V14.2166H18.931C18.7983 15.319 18.081 16.9793 16.4872 18.0949L16.4649 18.2434L20.0134 20.9924L20.2592 21.0169C22.5171 18.9316 23.8187 15.8636 23.8187 12.2244Z" fill="#4285F4"/>
<path id="Vector_2" d="M12.3434 23.9123C15.5708 23.9123 18.2802 22.8497 20.2592 21.0169L16.4872 18.0949C15.4778 18.7988 14.1231 19.2902 12.3434 19.2902C9.18237 19.2902 6.49949 17.2051 5.54312 14.3229L5.40294 14.3348L1.71315 17.1904L1.6649 17.3245C3.63056 21.2293 7.6682 23.9123 12.3434 23.9123Z" fill="#34A853"/>
<path id="Vector_3" d="M5.54312 14.3229C5.29078 13.5792 5.14473 12.7822 5.14473 11.9588C5.14473 11.1353 5.29078 10.3384 5.52985 9.59465L5.52316 9.43625L1.78714 6.53482L1.6649 6.59296C0.854755 8.21334 0.389893 10.033 0.389893 11.9588C0.389893 13.8846 0.854755 15.7042 1.6649 17.3245L5.54312 14.3229Z" fill="#FBBC05"/>
<path id="Vector_4" d="M12.3434 4.6273C14.5879 4.6273 16.102 5.59685 16.9654 6.40709L20.3389 3.11322C18.267 1.18738 15.5708 0.0053125 12.3434 0.0053125C7.6682 0.0053125 3.63056 2.68819 1.6649 6.59296L5.52985 9.59465C6.49949 6.71254 9.18237 4.6273 12.3434 4.6273Z" fill="#EB4335"/>
</g>
<defs>
<clipPath id="clip0_1_187">
<rect width="23.44" height="24" fill="white" transform="translate(0.389893)"/>
</clipPath>
</defs>
</svg>
